<svg width="500" height="677" viewBox="0 0 500 677" fill="none" xmlns="http://www.w3.org/2000/svg">
<rect width="500" height="677" fill="#1F2937"/>
<g clip-path="url(#clip0_0_1)">
<path fill-rule="evenodd" clip-rule="evenodd" d="M422.09 295.287C424.691 292.686 424.691 288.471 422.09 285.87L395.874 259.654C393.575 257.354 389.973 257.104 387.107 258.641C380.924 261.956 373.884 263.832 366.415 263.832C341.813 263.832 321.869 243.481 321.869 218.377C321.869 210.984 323.599 204.004 326.667 197.834C328.072 195.01 327.762 191.541 325.531 189.311L302.941 166.721C300.341 164.121 296.125 164.121 293.524 166.721L259.034 201.211C256.434 203.812 256.434 208.027 259.034 210.628L261.166 212.759C263.766 215.36 263.766 219.575 261.166 222.176L254.888 228.453C252.288 231.054 248.072 231.054 245.472 228.453L243.34 226.322C240.74 223.721 236.524 223.721 233.923 226.322L77.9502 382.295C75.3499 384.895 75.3499 389.111 77.9502 391.712L102.107 415.869C104.302 418.064 107.701 418.4 110.51 417.078C116.178 414.411 122.489 412.924 129.14 412.924C153.742 412.924 173.686 433.275 173.686 458.379C173.686 464.935 172.326 471.166 169.878 476.796C168.678 479.555 169.066 482.828 171.194 484.955L197.1 510.861C199.7 513.461 203.916 513.461 206.516 510.861L362.259 355.118C364.86 352.518 364.86 348.302 362.259 345.701L361.701 345.144C359.101 342.544 359.101 338.327 361.701 335.727L367.979 329.45C370.579 326.849 374.796 326.849 377.396 329.45L377.953 330.008C380.554 332.608 384.77 332.608 387.37 330.008L422.09 295.287ZM272.524 233.994C275.124 231.394 279.34 231.394 281.94 233.994L292.166 244.22C294.766 246.82 294.766 251.037 292.166 253.637L285.888 259.914C283.288 262.515 279.072 262.515 276.472 259.914L266.246 249.688C263.646 247.088 263.646 242.872 266.246 240.272L272.524 233.994ZM323.985 285.455C326.585 282.855 326.585 278.639 323.985 276.039L313.759 265.813C311.159 263.212 306.942 263.212 304.342 265.813L298.064 272.09C295.464 274.69 295.464 278.907 298.064 281.507L308.291 291.733C310.891 294.333 315.107 294.333 317.707 291.733L323.985 285.455ZM336.161 297.631C338.761 295.031 342.977 295.031 345.577 297.631L355.803 307.857C358.404 310.457 358.404 314.674 355.803 317.273L349.526 323.551C346.925 326.151 342.709 326.151 340.109 323.551L329.883 313.325C327.283 310.725 327.283 306.509 329.883 303.909L336.161 297.631Z" fill="#C084FC"/>
<mask id="mask0_0_1" style="mask-type:luminance" maskUnits="userSpaceOnUse" x="70" y="159" width="360" height="360">
<path d="M430 159H70V519H430V159Z" fill="white"/>
<path fill-rule="evenodd" clip-rule="evenodd" d="M421.861 295.287C424.462 292.686 424.462 288.471 421.861 285.87L395.645 259.654C393.345 257.354 389.744 257.104 386.878 258.641C380.695 261.956 373.655 263.832 366.186 263.832C341.584 263.832 321.64 243.481 321.64 218.377C321.64 210.984 323.369 204.004 326.438 197.834C327.843 195.01 327.532 191.541 325.302 189.311L302.712 166.721C300.112 164.121 295.895 164.121 293.295 166.721L258.805 201.211C256.204 203.812 256.204 208.027 258.805 210.628L260.936 212.759C263.537 215.36 263.537 219.575 260.936 222.176L254.659 228.453C252.058 231.054 247.842 231.054 245.242 228.453L243.111 226.322C240.51 223.721 236.294 223.721 233.694 226.322L77.721 382.295C75.1207 384.895 75.1207 389.111 77.721 391.712L101.878 415.869C104.073 418.064 107.472 418.4 110.281 417.078C115.949 414.411 122.26 412.924 128.911 412.924C153.513 412.924 173.457 433.275 173.457 458.379C173.457 464.935 172.097 471.166 169.649 476.796C168.449 479.555 168.837 482.828 170.965 484.955L196.871 510.861C199.471 513.461 203.687 513.461 206.287 510.861L362.03 355.118C364.631 352.518 364.631 348.302 362.03 345.701L361.472 345.144C358.872 342.544 358.872 338.327 361.472 335.727L367.75 329.45C370.35 326.849 374.566 326.849 377.167 329.45L377.724 330.008C380.324 332.608 384.541 332.608 387.141 330.008L421.861 295.287ZM272.294 233.994C274.895 231.394 279.111 231.394 281.711 233.994L291.937 244.22C294.537 246.82 294.537 251.037 291.937 253.637L285.659 259.914C283.059 262.515 278.843 262.515 276.243 259.914L266.017 249.688C263.416 247.088 263.416 242.872 266.017 240.272L272.294 233.994ZM323.756 285.455C326.356 282.855 326.356 278.639 323.756 276.039L313.53 265.813C310.929 263.212 306.713 263.212 304.113 265.813L297.835 272.09C295.235 274.69 295.235 278.907 297.835 281.507L308.061 291.733C310.662 294.333 314.878 294.333 317.478 291.733L323.756 285.455ZM335.931 297.631C338.532 295.031 342.748 295.031 345.348 297.631L355.574 307.857C358.174 310.457 358.174 314.674 355.574 317.273L349.297 323.551C346.696 326.151 342.48 326.151 339.88 323.551L329.654 313.325C327.053 310.725 327.053 306.509 329.654 303.909L335.931 297.631Z" fill="black"/>
</mask>
<g mask="url(#mask0_0_1)">
<path d="M391.564 263.734L417.781 289.951L425.942 281.79L399.725 255.573L391.564 263.734ZM366.186 269.603C374.634 269.603 382.607 267.478 389.604 263.726L384.151 253.555C378.782 256.433 372.676 258.061 366.186 258.061V269.603ZM315.869 218.377C315.869 246.557 338.287 269.603 366.186 269.603V258.061C344.88 258.061 327.41 240.404 327.41 218.377H315.869ZM321.271 195.264C317.813 202.218 315.869 210.076 315.869 218.377H327.41C327.41 211.892 328.926 205.79 331.604 200.404L321.271 195.264ZM298.631 170.801L321.221 193.391L329.382 185.23L306.792 162.64L298.631 170.801ZM262.885 205.292L297.376 170.801L289.215 162.64L254.724 197.131L262.885 205.292ZM265.016 208.679L262.885 206.547L254.724 214.708L256.856 216.84L265.016 208.679ZM258.739 232.534L265.016 226.256L256.856 218.095L250.578 224.373L258.739 232.534ZM239.03 230.402L241.161 232.534L249.323 224.373L247.191 222.241L239.03 230.402ZM81.8013 386.376L237.775 230.402L229.614 222.241L73.6404 378.215L81.8013 386.376ZM105.959 411.788L81.8013 387.631L73.6404 395.792L97.7976 419.949L105.959 411.788ZM112.737 422.3C117.655 419.986 123.129 418.695 128.911 418.695V407.153C121.39 407.153 114.242 408.837 107.824 411.857L112.737 422.3ZM128.911 418.695C150.216 418.695 167.686 436.351 167.686 458.379H179.227C179.227 430.198 156.809 407.153 128.911 407.153V418.695ZM167.686 458.379C167.686 464.13 166.494 469.58 164.357 474.494L174.941 479.096C177.699 472.752 179.227 465.738 179.227 458.379H167.686ZM200.951 506.781L175.045 480.875L166.884 489.036L192.79 514.942L200.951 506.781ZM357.95 351.037L202.206 506.781L210.368 514.942L366.11 359.199L357.95 351.037ZM357.392 349.224L357.95 349.782L366.11 341.621L365.553 341.063L357.392 349.224ZM363.669 325.369L357.392 331.647L365.553 339.808L371.83 333.53L363.669 325.369ZM381.805 325.927L381.247 325.369L373.086 333.53L373.644 334.088L381.805 325.927ZM417.781 291.206L383.06 325.927L391.221 334.088L425.942 299.368L417.781 291.206ZM296.017 240.14L285.791 229.914L277.63 238.075L287.856 248.301L296.017 240.14ZM289.74 263.995L296.017 257.717L287.856 249.556L281.579 255.834L289.74 263.995ZM261.936 253.769L272.162 263.995L280.323 255.834L270.097 245.608L261.936 253.769ZM268.214 229.914L261.936 236.191L270.097 244.352L276.375 238.075L268.214 229.914ZM309.449 269.893L319.675 280.119L327.836 271.958L317.61 261.732L309.449 269.893ZM301.916 276.171L308.193 269.893L300.032 261.732L293.755 268.01L301.916 276.171ZM312.142 287.652L301.916 277.426L293.755 285.587L303.981 295.813L312.142 287.652ZM319.675 281.375L313.397 287.652L321.558 295.813L327.836 289.536L319.675 281.375ZM359.654 303.777L349.428 293.551L341.267 301.712L351.493 311.938L359.654 303.777ZM353.377 327.632L359.654 321.354L351.493 313.193L345.216 319.471L353.377 327.632ZM325.573 317.406L335.799 327.632L343.96 319.471L333.734 309.245L325.573 317.406ZM331.851 293.551L325.573 299.828L333.734 307.989L340.012 301.712L331.851 293.551ZM333.734 309.245C333.388 308.898 333.388 308.336 333.734 307.989L325.573 299.828C320.719 304.682 320.719 312.552 325.573 317.406L333.734 309.245ZM345.216 319.471C344.869 319.817 344.307 319.817 343.96 319.471L335.799 327.632C340.653 332.486 348.523 332.486 353.377 327.632L345.216 319.471ZM349.428 293.551C344.574 288.697 336.705 288.697 331.851 293.551L340.012 301.712C340.359 301.365 340.92 301.365 341.267 301.712L349.428 293.551ZM351.493 311.938C351.84 312.284 351.84 312.846 351.493 313.193L359.654 321.354C364.508 316.5 364.508 308.631 359.654 303.777L351.493 311.938ZM303.981 295.813C308.835 300.667 316.704 300.667 321.558 295.813L313.397 287.652C313.05 287.999 312.488 287.999 312.142 287.652L303.981 295.813ZM293.755 268.01C288.901 272.864 288.901 280.733 293.755 285.587L301.916 277.426C301.569 277.079 301.569 276.518 301.916 276.171L293.755 268.01ZM319.675 280.119C320.021 280.466 320.021 281.028 319.675 281.375L327.836 289.536C332.69 284.682 332.69 276.812 327.836 271.958L319.675 280.119ZM281.579 255.834C281.232 256.18 280.67 256.18 280.323 255.834L272.162 263.995C277.016 268.849 284.886 268.849 289.74 263.995L281.579 255.834ZM285.791 229.914C280.937 225.06 273.068 225.06 268.214 229.914L276.375 238.075C276.722 237.728 277.284 237.728 277.63 238.075L285.791 229.914ZM287.856 248.301C288.203 248.647 288.203 249.209 287.856 249.556L296.017 257.717C300.871 252.863 300.871 244.994 296.017 240.14L287.856 248.301ZM373.644 334.088C378.498 338.942 386.367 338.942 391.221 334.088L383.06 325.927C382.713 326.274 382.151 326.274 381.805 325.927L373.644 334.088ZM371.83 333.53C372.177 333.184 372.739 333.184 373.086 333.53L381.247 325.369C376.393 320.515 368.523 320.515 363.669 325.369L371.83 333.53ZM365.553 341.063C365.206 340.716 365.206 340.154 365.553 339.808L357.392 331.647C352.538 336.501 352.538 344.37 357.392 349.224L365.553 341.063ZM366.11 359.199C370.964 354.344 370.964 346.475 366.11 341.621L357.95 349.782C358.296 350.129 358.296 350.691 357.95 351.037L366.11 359.199ZM192.79 514.942C197.644 519.795 205.514 519.795 210.368 514.942L202.206 506.781C201.86 507.127 201.298 507.127 200.951 506.781L192.79 514.942ZM164.357 474.494C162.363 479.08 162.827 484.978 166.884 489.036L175.045 480.875C174.926 480.756 174.812 480.57 174.767 480.261C174.718 479.934 174.758 479.517 174.941 479.096L164.357 474.494ZM73.6404 378.215C68.7865 383.069 68.7865 390.938 73.6404 395.792L81.8013 387.631C81.4546 387.284 81.4546 386.722 81.8013 386.376L73.6404 378.215ZM247.191 222.241C242.337 217.387 234.468 217.387 229.614 222.241L237.775 230.402C238.121 230.056 238.683 230.056 239.03 230.402L247.191 222.241ZM250.578 224.373C250.231 224.72 249.669 224.72 249.323 224.373L241.161 232.534C246.015 237.388 253.885 237.388 258.739 232.534L250.578 224.373ZM256.856 216.84C257.203 217.186 257.203 217.749 256.856 218.095L265.016 226.256C269.87 221.402 269.87 213.533 265.016 208.679L256.856 216.84ZM331.604 200.404C333.931 195.725 333.638 189.487 329.382 185.23L321.221 193.391C321.346 193.516 321.464 193.712 321.504 194.041C321.546 194.391 321.485 194.833 321.271 195.264L331.604 200.404ZM254.724 197.131C249.87 201.985 249.87 209.855 254.724 214.708L262.885 206.547C262.538 206.2 262.538 205.638 262.885 205.292L254.724 197.131ZM317.61 261.732C312.756 256.878 304.886 256.878 300.032 261.732L308.193 269.893C308.54 269.546 309.102 269.546 309.449 269.893L317.61 261.732ZM417.781 289.951C418.127 290.298 418.127 290.86 417.781 291.206L425.942 299.368C430.795 294.514 430.795 286.644 425.942 281.79L417.781 289.951ZM306.792 162.64C301.938 157.787 294.069 157.787 289.215 162.64L297.376 170.801C297.722 170.455 298.284 170.455 298.631 170.801L306.792 162.64ZM97.7976 419.949C101.988 424.139 108.1 424.481 112.737 422.3L107.824 411.857C107.387 412.062 106.945 412.115 106.598 412.07C106.273 412.027 106.08 411.91 105.959 411.788L97.7976 419.949ZM270.097 245.608C269.75 245.261 269.75 244.699 270.097 244.352L261.936 236.191C257.082 241.045 257.082 248.915 261.936 253.769L270.097 245.608ZM399.725 255.573C395.332 251.18 388.87 251.025 384.151 253.555L389.604 263.726C390.051 263.487 390.517 263.411 390.887 263.449C391.233 263.485 391.435 263.606 391.564 263.734L399.725 255.573Z" fill="white"/>
</g>
<path d="M291.706 391.82C291.726 393.836 290.107 395.487 288.09 395.504L211.679 396.171C209.667 396.189 208.021 394.574 208 392.561C207.98 390.545 209.599 388.894 211.616 388.877L288.027 388.21C290.039 388.192 291.685 389.808 291.706 391.82Z" fill="#1F2937"/>
<path d="M291.705 313.694C291.726 315.711 290.106 317.361 288.09 317.379L211.679 318.045C209.667 318.063 208.021 316.448 208 314.436C207.98 312.419 209.599 310.769 211.615 310.751L249.815 310.418L288.026 310.084C290.038 310.066 291.685 311.682 291.705 313.694Z" fill="#1F2937"/>
<path d="M292.249 329.191C292.27 331.207 290.651 332.857 288.634 332.875L208.679 333.578C206.667 333.596 205.02 331.98 205 329.968C204.979 327.952 206.598 326.301 208.615 326.283L288.57 325.581C290.582 325.563 292.229 327.178 292.249 329.191Z" fill="#1F2937"/>
<path d="M292.057 375.963C292.076 377.809 290.593 379.321 288.747 379.337L208.37 380.053C206.527 380.07 205.019 378.59 205 376.748C204.982 374.901 206.464 373.39 208.31 373.373L288.687 372.657C290.53 372.641 292.038 374.12 292.057 375.963Z" fill="#1F2937"/>
<path d="M262.835 329.033L279.421 328.733C282.907 328.67 284.606 332.964 282.021 335.303L236.729 376.287C236.054 376.899 235.179 377.245 234.269 377.262H217.969C214.485 377.328 212.626 373.349 215.206 371.007L260.367 330.012C261.044 329.397 261.921 329.049 262.835 329.033Z" fill="white" stroke="#1F2937" stroke-width="6"/>
</g>
<defs>
<clipPath id="clip0_0_1">
<rect width="360" height="360" fill="white" transform="translate(70 159)"/>
</clipPath>
</defs>
</svg>
