<svg width="30" height="30" viewBox="0 0 30 30" fill="none" xmlns="http://www.w3.org/2000/svg">
<g clip-path="url(#clip0_2601_167)">
<path fill-rule="evenodd" clip-rule="evenodd" d="M29.3218 11.3573C29.5385 11.1406 29.5385 10.7893 29.3218 10.5726L27.1371 8.3879C26.9455 8.19625 26.6454 8.17538 26.4065 8.30345C25.8913 8.57974 25.3046 8.73606 24.6822 8.73606C22.6321 8.73606 20.9701 7.04012 20.9701 4.94815C20.9701 4.33209 21.1142 3.7504 21.3699 3.23626C21.4869 3.00089 21.4611 2.71185 21.2752 2.52598L19.3927 0.643476C19.176 0.426784 18.8247 0.426784 18.608 0.643476L15.7338 3.51768C15.5171 3.73439 15.5171 4.08569 15.7338 4.30239L15.9114 4.48002C16.1281 4.69672 16.1281 5.04802 15.9114 5.26472L15.3883 5.78785C15.1716 6.00455 14.8203 6.00455 14.6036 5.78785L14.426 5.61022C14.2093 5.39352 13.8579 5.39352 13.6412 5.61022L0.643476 18.608C0.426784 18.8247 0.426784 19.176 0.643476 19.3927L2.65658 21.4058C2.83947 21.5887 3.12274 21.6167 3.35678 21.5066C3.82912 21.2843 4.35503 21.1604 4.9093 21.1604C6.95948 21.1604 8.62146 22.8563 8.62146 24.9483C8.62146 25.4946 8.50812 26.0139 8.30415 26.483C8.20416 26.713 8.23649 26.9857 8.41379 27.163L10.5726 29.3218C10.7893 29.5385 11.1406 29.5385 11.3573 29.3218L24.3359 16.3433C24.5526 16.1266 24.5526 15.7752 24.3359 15.5585L24.2894 15.5121C24.0727 15.2954 24.0727 14.944 24.2894 14.7273L24.8125 14.2042C25.0292 13.9875 25.3806 13.9875 25.5973 14.2042L25.6437 14.2507C25.8604 14.4674 26.2118 14.4674 26.4284 14.2507L29.3218 11.3573ZM16.8579 6.24958C17.0746 6.03288 17.426 6.03288 17.6426 6.24958L18.4948 7.10175C18.7115 7.31844 18.7115 7.66979 18.4948 7.88648L17.9717 8.40961C17.755 8.62631 17.4037 8.62631 17.187 8.40961L16.3348 7.55744C16.1181 7.34075 16.1181 6.9894 16.3348 6.77271L16.8579 6.24958ZM21.1464 10.538C21.3631 10.3213 21.3631 9.96998 21.1464 9.75329L20.2942 8.90112C20.0775 8.68442 19.7262 8.68442 19.5095 8.90112L18.9863 9.42425C18.7696 9.64094 18.7696 9.99229 18.9863 10.2089L19.8385 11.0612C20.0552 11.2778 20.4065 11.2778 20.6232 11.0612L21.1464 10.538ZM22.161 11.5527C22.3777 11.336 22.729 11.336 22.9457 11.5527L23.7979 12.4048C24.0146 12.6215 24.0146 12.9729 23.7979 13.1895L23.2748 13.7127C23.0581 13.9294 22.7067 13.9294 22.49 13.7127L21.6379 12.8605C21.4212 12.6438 21.4212 12.2925 21.6379 12.0758L22.161 11.5527Z" fill="#C084FC"/>
<mask id="mask0_2601_167" style="mask-type:luminance" maskUnits="userSpaceOnUse" x="0" y="0" width="30" height="30">
<path d="M30 0H0V30H30V0Z" fill="white"/>
<path fill-rule="evenodd" clip-rule="evenodd" d="M29.3218 11.3573C29.5385 11.1406 29.5385 10.7893 29.3218 10.5726L27.1371 8.3879C26.9455 8.19625 26.6454 8.17538 26.4065 8.30345C25.8913 8.57974 25.3046 8.73606 24.6822 8.73606C22.6321 8.73606 20.9701 7.04012 20.9701 4.94815C20.9701 4.33209 21.1142 3.7504 21.3699 3.23626C21.4869 3.00089 21.4611 2.71185 21.2752 2.52598L19.3927 0.643476C19.176 0.426784 18.8247 0.426784 18.608 0.643476L15.7338 3.51768C15.5171 3.73439 15.5171 4.08569 15.7338 4.30239L15.9114 4.48002C16.1281 4.69672 16.1281 5.04802 15.9114 5.26472L15.3883 5.78785C15.1716 6.00455 14.8203 6.00455 14.6036 5.78785L14.426 5.61022C14.2093 5.39352 13.8579 5.39352 13.6412 5.61022L0.643476 18.608C0.426784 18.8247 0.426784 19.176 0.643476 19.3927L2.65658 21.4058C2.83947 21.5887 3.12274 21.6167 3.35678 21.5066C3.82912 21.2843 4.35503 21.1604 4.9093 21.1604C6.95948 21.1604 8.62146 22.8563 8.62146 24.9483C8.62146 25.4946 8.50812 26.0139 8.30415 26.483C8.20416 26.713 8.23649 26.9857 8.41379 27.163L10.5726 29.3218C10.7893 29.5385 11.1406 29.5385 11.3573 29.3218L24.3359 16.3433C24.5526 16.1266 24.5526 15.7752 24.3359 15.5585L24.2894 15.5121C24.0727 15.2954 24.0727 14.944 24.2894 14.7273L24.8125 14.2042C25.0292 13.9875 25.3806 13.9875 25.5973 14.2042L25.6437 14.2507C25.8604 14.4674 26.2118 14.4674 26.4284 14.2507L29.3218 11.3573ZM16.8579 6.24958C17.0746 6.03288 17.426 6.03288 17.6426 6.24958L18.4948 7.10175C18.7115 7.31844 18.7115 7.66979 18.4948 7.88648L17.9717 8.40961C17.755 8.62631 17.4037 8.62631 17.187 8.40961L16.3348 7.55744C16.1181 7.34075 16.1181 6.9894 16.3348 6.77271L16.8579 6.24958ZM21.1464 10.538C21.3631 10.3213 21.3631 9.96998 21.1464 9.75329L20.2942 8.90112C20.0775 8.68442 19.7262 8.68442 19.5095 8.90112L18.9863 9.42425C18.7696 9.64094 18.7696 9.99229 18.9863 10.2089L19.8385 11.0612C20.0552 11.2778 20.4065 11.2778 20.6232 11.0612L21.1464 10.538ZM22.161 11.5527C22.3777 11.336 22.729 11.336 22.9457 11.5527L23.7979 12.4048C24.0146 12.6215 24.0146 12.9729 23.7979 13.1895L23.2748 13.7127C23.0581 13.9294 22.7067 13.9294 22.49 13.7127L21.6379 12.8605C21.4212 12.6438 21.4212 12.2925 21.6379 12.0758L22.161 11.5527Z" fill="black"/>
</mask>
<g mask="url(#mask0_2601_167)">
<path d="M26.797 8.72785L28.9817 10.9126L29.6618 10.2325L27.4771 8.04776L26.797 8.72785ZM24.6821 9.21687C25.3861 9.21687 26.0506 9.03983 26.6337 8.72718L26.1792 7.87956C25.7318 8.11945 25.223 8.2551 24.6821 8.2551V9.21687ZM20.4891 4.94807C20.4891 7.29643 22.3573 9.21687 24.6821 9.21687V8.2551C22.9067 8.2551 21.4509 6.7837 21.4509 4.94807H20.4891ZM20.9392 3.02204C20.651 3.60148 20.4891 4.25634 20.4891 4.94807H21.4509C21.4509 4.4077 21.5771 3.89918 21.8004 3.45033L20.9392 3.02204ZM19.0526 0.983445L20.9351 2.86595L21.6152 2.18587L19.7327 0.303366L19.0526 0.983445ZM16.0737 3.85764L18.948 0.983445L18.2679 0.303366L15.3937 3.17757L16.0737 3.85764ZM16.2514 4.13989L16.0737 3.96229L15.3937 4.64234L15.5713 4.81997L16.2514 4.13989ZM15.7282 6.12784L16.2514 5.60467L15.5713 4.92462L15.0482 5.44775L15.7282 6.12784ZM14.0858 5.95021L14.2635 6.12784L14.9435 5.44775L14.7659 5.27012L14.0858 5.95021ZM0.983445 18.948L13.9812 5.95021L13.3011 5.27012L0.303366 18.2679L0.983445 18.948ZM2.99655 21.0657L0.983445 19.0526L0.303366 19.7327L2.31647 21.7458L2.99655 21.0657ZM3.56142 21.9416C3.97128 21.7488 4.42742 21.6412 4.90923 21.6412V20.6795C4.28249 20.6795 3.68684 20.8197 3.15199 21.0714L3.56142 21.9416ZM4.90923 21.6412C6.68471 21.6412 8.1405 23.1126 8.1405 24.9483H9.10228C9.10228 22.5999 7.2341 20.6795 4.90923 20.6795V21.6412ZM8.1405 24.9483C8.1405 25.4275 8.04114 25.8816 7.86307 26.2912L8.74509 26.6747C8.97495 26.146 9.10228 25.5615 9.10228 24.9483H8.1405ZM10.9126 28.9817L8.75378 26.8229L8.07369 27.503L10.2325 29.6618L10.9126 28.9817ZM23.9958 16.0031L11.0172 28.9817L11.6973 29.6618L24.6759 16.6832L23.9958 16.0031ZM23.9493 15.852L23.9958 15.8985L24.6759 15.2184L24.6294 15.1719L23.9493 15.852ZM24.4724 13.8641L23.9493 14.3872L24.6294 15.0673L25.1525 14.5442L24.4724 13.8641ZM25.9837 13.9106L25.9372 13.8641L25.2571 14.5442L25.3036 14.5906L25.9837 13.9106ZM28.9817 11.0172L26.0883 13.9106L26.7684 14.5906L29.6618 11.6973L28.9817 11.0172ZM18.8348 6.76165L17.9826 5.90948L17.3025 6.58956L18.1547 7.44173L18.8348 6.76165ZM18.3116 8.74956L18.8348 8.22643L18.1547 7.54635L17.6316 8.06948L18.3116 8.74956ZM15.9947 7.89739L16.8469 8.74956L17.5269 8.06948L16.6747 7.21731L15.9947 7.89739ZM16.5178 5.90948L15.9947 6.43261L16.6747 7.1127L17.1979 6.58956L16.5178 5.90948ZM19.9541 9.2411L20.8062 10.0933L21.4863 9.41319L20.6341 8.56102L19.9541 9.2411ZM19.3263 9.76424L19.8494 9.2411L19.1694 8.56102L18.6462 9.08415L19.3263 9.76424ZM20.1785 10.721L19.3263 9.86885L18.6462 10.5489L19.4984 11.4011L20.1785 10.721ZM20.8062 10.1979L20.2831 10.721L20.9632 11.4011L21.4863 10.878L20.8062 10.1979ZM24.1379 12.0647L23.2857 11.2126L22.6056 11.8926L23.4578 12.7448L24.1379 12.0647ZM23.6147 14.0526L24.1379 13.5295L23.4578 12.8494L22.9346 13.3726L23.6147 14.0526ZM21.2978 13.2005L22.1499 14.0526L22.83 13.3726L21.9779 12.5204L21.2978 13.2005ZM21.8209 11.2126L21.2978 11.7357L21.9779 12.4158L22.501 11.8926L21.8209 11.2126ZM21.9779 12.5204C21.949 12.4915 21.949 12.4447 21.9779 12.4158L21.2978 11.7357C20.8933 12.1402 20.8933 12.796 21.2978 13.2005L21.9779 12.5204ZM22.9346 13.3726C22.9057 13.4014 22.8589 13.4014 22.83 13.3726L22.1499 14.0526C22.5544 14.4571 23.2102 14.4571 23.6147 14.0526L22.9346 13.3726ZM23.2857 11.2126C22.8812 10.8081 22.2254 10.8081 21.8209 11.2126L22.501 11.8926C22.5299 11.8638 22.5767 11.8637 22.6056 11.8926L23.2857 11.2126ZM23.4578 12.7448C23.4867 12.7737 23.4867 12.8205 23.4578 12.8494L24.1379 13.5295C24.5424 13.125 24.5424 12.4692 24.1379 12.0647L23.4578 12.7448ZM19.4984 11.4011C19.9029 11.8056 20.5587 11.8056 20.9632 11.4011L20.2831 10.721C20.2542 10.7499 20.2074 10.7499 20.1785 10.721L19.4984 11.4011ZM18.6462 9.08415C18.2417 9.48865 18.2417 10.1444 18.6462 10.5489L19.3263 9.86885C19.2974 9.83996 19.2974 9.79313 19.3263 9.76424L18.6462 9.08415ZM20.8062 10.0933C20.8351 10.1222 20.8351 10.169 20.8062 10.1979L21.4863 10.878C21.8908 10.4735 21.8908 9.81769 21.4863 9.41319L20.8062 10.0933ZM17.6316 8.06948C17.6027 8.09837 17.5558 8.09837 17.5269 8.06948L16.8469 8.74956C17.2514 9.15406 17.9071 9.15406 18.3116 8.74956L17.6316 8.06948ZM17.9826 5.90948C17.5781 5.50498 16.9223 5.50498 16.5178 5.90948L17.1979 6.58956C17.2268 6.56067 17.2736 6.56067 17.3025 6.58956L17.9826 5.90948ZM18.1547 7.44173C18.1836 7.47062 18.1836 7.51746 18.1547 7.54635L18.8348 8.22643C19.2393 7.82193 19.2393 7.16615 18.8348 6.76165L18.1547 7.44173ZM25.3036 14.5906C25.7081 14.9951 26.3639 14.9951 26.7684 14.5906L26.0883 13.9106C26.0594 13.9395 26.0126 13.9395 25.9837 13.9106L25.3036 14.5906ZM25.1525 14.5442C25.1814 14.5153 25.2282 14.5153 25.2571 14.5442L25.9372 13.8641C25.5327 13.4596 24.8769 13.4596 24.4724 13.8641L25.1525 14.5442ZM24.6294 15.1719C24.6005 15.143 24.6005 15.0962 24.6294 15.0673L23.9493 14.3872C23.5448 14.7917 23.5448 15.4475 23.9493 15.852L24.6294 15.1719ZM24.6759 16.6832C25.0804 16.2787 25.0804 15.6229 24.6759 15.2184L23.9958 15.8985C24.0247 15.9274 24.0247 15.9742 23.9958 16.0031L24.6759 16.6832ZM10.2325 29.6618C10.637 30.0663 11.2928 30.0663 11.6973 29.6618L11.0172 28.9817C10.9883 29.0106 10.9415 29.0106 10.9126 28.9817L10.2325 29.6618ZM7.86307 26.2912C7.69694 26.6733 7.73556 27.1649 8.07369 27.503L8.75378 26.8229C8.74387 26.813 8.73436 26.7975 8.73055 26.7718C8.72648 26.7445 8.72985 26.7097 8.74509 26.6747L7.86307 26.2912ZM0.303366 18.2679C-0.101122 18.6724 -0.101122 19.3282 0.303366 19.7327L0.983445 19.0526C0.954551 19.0237 0.954551 18.9769 0.983445 18.948L0.303366 18.2679ZM14.7659 5.27012C14.3614 4.86562 13.7056 4.86562 13.3011 5.27012L13.9812 5.95021C14.0101 5.92132 14.0569 5.92132 14.0858 5.95021L14.7659 5.27012ZM15.0482 5.44775C15.0193 5.47664 14.9724 5.47664 14.9435 5.44775L14.2635 6.12784C14.668 6.5323 15.3238 6.5323 15.7282 6.12784L15.0482 5.44775ZM15.5713 4.81997C15.6002 4.84886 15.6002 4.89573 15.5713 4.92462L16.2514 5.60467C16.6559 5.20021 16.6559 4.54439 16.2514 4.13989L15.5713 4.81997ZM21.8004 3.45033C21.9943 3.06046 21.9698 2.54055 21.6152 2.18587L20.9351 2.86595C20.9455 2.87637 20.9553 2.8927 20.9586 2.92007C20.9621 2.94922 20.9571 2.98608 20.9392 3.02204L21.8004 3.45033ZM15.3937 3.17757C14.9892 3.58206 14.9892 4.23788 15.3937 4.64234L16.0737 3.96229C16.0448 3.93336 16.0448 3.88653 16.0737 3.85764L15.3937 3.17757ZM20.6341 8.56102C20.2296 8.15652 19.5739 8.15652 19.1694 8.56102L19.8494 9.2411C19.8783 9.21218 19.9252 9.21218 19.9541 9.2411L20.6341 8.56102ZM28.9817 10.9126C29.0106 10.9415 29.0106 10.9883 28.9817 11.0172L29.6618 11.6973C30.0663 11.2928 30.0663 10.637 29.6618 10.2325L28.9817 10.9126ZM19.7327 0.303366C19.3282 -0.101122 18.6724 -0.101122 18.2679 0.303366L18.948 0.983445C18.9769 0.954551 19.0237 0.954551 19.0526 0.983445L19.7327 0.303366ZM2.31647 21.7458C2.66563 22.0949 3.17503 22.1234 3.56142 21.9416L3.15199 21.0714C3.11556 21.0885 3.07874 21.0929 3.04987 21.0892C3.02274 21.0856 3.0067 21.0759 2.99655 21.0657L2.31647 21.7458ZM16.6747 7.21731C16.6458 7.18842 16.6458 7.14159 16.6747 7.1127L15.9947 6.43261C15.5902 6.83711 15.5902 7.49289 15.9947 7.89739L16.6747 7.21731ZM27.4771 8.04776C27.111 7.6817 26.5725 7.66871 26.1792 7.87956L26.6337 8.72718C26.6709 8.70725 26.7098 8.70096 26.7406 8.7041C26.7694 8.70706 26.7863 8.71716 26.797 8.72785L27.4771 8.04776Z" fill="white"/>
</g>
<path d="M20.1105 19.4017C20.1122 19.5697 19.9772 19.7072 19.8092 19.7087L13.4416 19.7643C13.2739 19.7658 13.1368 19.6311 13.135 19.4635C13.1333 19.2955 13.2683 19.1579 13.4363 19.1564L19.8039 19.1008C19.9715 19.0994 20.1087 19.234 20.1105 19.4017Z" fill="#1F2937"/>
<path d="M14.7098 12.8912C14.7116 13.0592 14.5766 13.1967 14.4086 13.1982L8.04098 13.2538C7.87329 13.2553 7.73613 13.1207 7.73439 12.953C7.73269 12.785 7.86763 12.6474 8.03569 12.6459L11.219 12.6181L14.4032 12.5903C14.5709 12.5889 14.7081 12.7235 14.7098 12.8912Z" fill="#1F2937"/>
<path d="M16.8545 14.1825C16.8563 14.3505 16.7213 14.488 16.5533 14.4895L9.89034 14.548C9.72266 14.5495 9.58546 14.4149 9.58376 14.2472C9.58202 14.0792 9.71696 13.9416 9.88501 13.9402L16.5479 13.8816C16.7156 13.8801 16.8528 14.0147 16.8545 14.1825Z" fill="#1F2937"/>
<path d="M18.2606 18.0802C18.2622 18.2341 18.1386 18.36 17.9847 18.3614L11.2867 18.421C11.1331 18.4224 11.0075 18.2991 11.0059 18.1456C11.0043 17.9917 11.1279 17.8657 11.2817 17.8644L17.9798 17.8047C18.1334 17.8033 18.259 17.9266 18.2606 18.0802Z" fill="#1F2937"/>
<path d="M15.1389 14.1693L16.5211 14.1443C16.8115 14.1391 16.9532 14.4969 16.7377 14.6919L12.9634 18.1072C12.9071 18.1582 12.8343 18.187 12.7584 18.1884H11.4001C11.1097 18.1939 10.9548 17.8623 11.1698 17.6671L14.9332 14.2509C14.9896 14.1997 15.0627 14.1707 15.1389 14.1693Z" fill="white" stroke="#1F2937" stroke-width="0.8"/>
</g>
<defs>
<clipPath id="clip0_2601_167">
<rect width="30" height="30" fill="white"/>
</clipPath>
</defs>
</svg>
